# xmcd CD database file
#
# Track frame offsets:
#	150
#	22535
#	41980
#	69640
#	86727
#	108792
#	138487
#	167282
#	192832
#	212897
#	230905
#	251740
#
# Disc length: 3679 seconds
#
# Revision: 0
# Processed by: cddbd v1.5.2PL0 Copyright (c) Steve Scherf et al.
# Submitted via: CDex 1.70beta2
#
DISCID=a30e5d0c
DTITLE=Various Artist - Jazz Piano Trio Best Selection
DYEAR=1990
DGENRE=Jazz
TTITLE0=My Foolish Heart - Bill Evans
TTITLE1=What's New - Red Garland
TTITLE2=Willow Weep For Me - Wynton Kelly
TTITLE3=Georgia On My Mind - Oscar Peterson
TTITLE4=Golden Earrings - Ray Bryant
TTITLE5=Softly As In A Morning Sunrise - Sonny Clark
TTITLE6=The Green Leaves Of Summer - Hampton Hawes
TTITLE7=Satin Doll - McCoy Tyner
TTITLE8=Cleopatra's Dream - Bud Powell
TTITLE9=Prelude To A Kiss - Phineas Newborn Jr.
TTITLE10=Milestones - Walter Bishop Jr.
TTITLE11=I'm A Fool To Want You - Duke Pearson
EXTD=YEAR: 1990
EXTT0=
EXTT1=
EXTT2=
EXTT3=
EXTT4=
EXTT5=
EXTT6=
EXTT7=
EXTT8=
EXTT9=
EXTT10=
EXTT11=
PLAYORDER=
